<svg width="171" height="272" viewBox="0 0 171 272" fill="none" xmlns="http://www.w3.org/2000/svg">
<path d="M45.0178 271.643C47.6747 273.055 50.4774 269.996 48.8507 267.465C40.0214 253.723 31.6605 230.599 44.9814 200.819C67.1956 151.159 80.7129 125.438 80.7129 125.438C80.7129 125.438 87.9027 155.454 107.393 182.142C126.15 207.828 136.417 240.132 119.865 267.044C118.312 269.57 121.051 272.55 123.691 271.199C144.18 260.718 167.16 239.695 169.753 197.858C170.709 185.074 169.275 167.176 162.106 144.591C152.888 115.966 141.555 102.609 134.998 96.8732C133.037 95.1572 129.987 96.6781 130.148 99.279C132.058 130.165 120.439 138.003 113.825 120.339C111.184 113.284 109.643 101.082 109.643 86.2212C109.643 61.4812 102.465 36.0136 86.6409 15.3185C82.5258 9.93673 77.7107 4.90784 72.1863 0.619397C70.1863 -0.933492 67.2872 0.627397 67.4703 3.15273C68.6854 19.9243 67.5845 67.9905 25.4152 125.415C-12.82 178.682 1.99604 219.591 7.25337 230.671C17.3049 251.897 31.3254 264.362 45.0178 271.643Z" fill="white"/>
</svg>
