<svg width="148" height="147" viewBox="0 0 148 147" fill="none" xmlns="http://www.w3.org/2000/svg">
<g id="Group">
<g id="Group_2">
<path id="Vector" d="M77.3852 147C34.7161 147 0 112.287 0 69.6179C0 40.0656 16.451 13.5131 42.9354 0.325051C44.1272 -0.266243 45.5606 -0.0371552 46.4986 0.900866C47.4366 1.83889 47.6781 3.27223 47.093 4.46101C42.2605 14.2808 39.8117 24.8374 39.8117 35.8305C39.8117 75.0881 71.7478 107.024 111.005 107.024C122.119 107.024 132.778 104.52 142.694 99.585C143.889 98.9937 145.319 99.2228 146.257 100.161C147.198 101.099 147.436 102.532 146.851 103.721C133.725 130.413 107.105 147 77.3852 147ZM37.9171 10.3554C18.1475 23.4691 6.19156 45.4522 6.19156 69.6179C6.19156 108.872 38.1276 140.808 77.3852 140.808C101.699 140.808 123.763 128.741 136.846 108.789C128.586 111.73 119.93 113.216 111.008 113.216C68.3393 113.216 33.6233 78.4997 33.6233 35.8305C33.6233 27.0385 35.0659 18.5066 37.9171 10.3554Z" fill="#E5E5E5"/>
</g>
</g>
</svg>
